# xmcd
#
# Track frame offsets: 
#        150
#        19655
#        33312
#        56515
#        75168
#        87519
#        102617
#        127318
#        143949
#        164248
#        186392
#        206631
#        221996
#        240961
#        258878
#        274857
#
# Disc length: 3850 seconds
#
# Revision: 0
# Processed by: cddbd v1.5.1PL0 Copyright (c) Steve Scherf et al.
# Submitted via: ExactAudioCopy v0.95a5
#
DISCID=f00f0810
DTITLE=Various Artist - Dance Party Winter 2005
DYEAR=2004
DGENRE=Dance
TTITLE0=Gabry Ponte - Pump up the Rhythm
TTITLE1=w
TTITLE2=e
TTITLE3=w
TTITLE4=q
TTITLE5=wert
TTITLE6=z
TTITLE7=u
TTITLE8=i
TTITLE9=o
TTITLE10=p
TTITLE11=l
TTITLE12=e
TTITLE13=w
TTITLE14=s
TTITLE15=a
EXTD=
EXTT0=
EXTT1=
EXTT2=
EXTT3=
EXTT4=
EXTT5=
EXTT6=
EXTT7=
EXTT8=
EXTT9=
EXTT10=
EXTT11=
EXTT12=
EXTT13=
EXTT14=
EXTT15=
PLAYORDER=
